<svg xmlns="http://www.w3.org/2000/svg" width="18" height="14" viewBox="0 0 18 14" fill="none">
  <g clip-path="url(#clip0_131_130)">
    <path d="M10.6186 0.421434C10.1623 0.294382 9.68715 0.551079 9.55561 0.991871L6.11957 12.608C5.98803 13.0488 6.25379 13.5078 6.71014 13.6348C7.16649 13.7619 7.64163 13.5052 7.77316 13.0644L11.2092 1.44822C11.3407 1.00743 11.075 0.548486 10.6186 0.421434ZM12.7823 3.5355C12.4467 3.85961 12.4467 4.38597 12.7823 4.71008L15.1794 7.02813L12.7796 9.34618C12.444 9.67029 12.444 10.1966 12.7796 10.5208C13.1151 10.8449 13.6601 10.8449 13.9956 10.5208L17.0022 7.61672C17.3377 7.2926 17.3377 6.76625 17.0022 6.44213L13.9956 3.53809C13.6601 3.21398 13.1151 3.21398 12.7796 3.53809L12.7823 3.5355ZM4.54919 3.5355C4.21364 3.21139 3.6687 3.21139 3.33315 3.5355L0.326614 6.43954C-0.00893658 6.76365 -0.00893658 7.29001 0.326614 7.61412L3.33315 10.5182C3.6687 10.8423 4.21364 10.8423 4.54919 10.5182C4.88474 10.1941 4.88474 9.66769 4.54919 9.34358L2.14933 7.02813L4.54919 4.71008C4.88474 4.38597 4.88474 3.85961 4.54919 3.5355Z" fill="#454545"/>
  </g>
  <defs>
    <clipPath id="clip0_131_130">
      <rect width="17.1802" height="13.2756" fill="white" transform="translate(0.0742188 0.390442)"/>
    </clipPath>
  </defs>
</svg>