<!-- Strike icon SVG - to be filled by user --> 
<svg xmlns="http://www.w3.org/2000/svg" width="15" height="16" viewBox="0 0 15 16" fill="none">
  <g clip-path="url(#clip0_3_45)">
    <path d="M5.28358 4.92512C5.37144 4.4529 5.66794 4.09874 6.20879 3.86538C6.78807 3.6183 7.63091 3.5277 8.64123 3.68693C8.96793 3.73909 9.98099 3.93676 10.2912 4.01638C10.7607 4.13993 11.2411 3.86264 11.3674 3.39317C11.4937 2.92371 11.2137 2.44326 10.7442 2.31697C10.3516 2.21264 9.27267 2.00399 8.91577 1.94908C7.68857 1.7569 6.49157 1.83378 5.51969 2.24833C4.51761 2.67662 3.75164 3.47828 3.54848 4.64508C3.54573 4.66156 3.54299 4.67528 3.54299 4.69175C3.46612 5.34791 3.55672 5.94367 3.82028 6.46529C3.94382 6.71238 4.10031 6.92927 4.27876 7.12145H1.73376C1.24782 7.12145 0.855225 7.51404 0.855225 7.99998C0.855225 8.48592 1.24782 8.87852 1.73376 8.87852H14.0332C14.5192 8.87852 14.9118 8.48592 14.9118 7.99998C14.9118 7.51404 14.5192 7.12145 14.0332 7.12145H8.2706L8.25962 7.1187L8.22942 7.11047C7.24107 6.81396 6.4394 6.57237 5.89032 6.20173C5.635 6.02877 5.47851 5.85581 5.39065 5.67736C5.30555 5.50989 5.24789 5.27653 5.28633 4.92512H5.28358ZM10.434 10.2293C10.5081 10.4077 10.5548 10.663 10.4861 11.0556C10.4038 11.5388 10.1073 11.9012 9.55545 12.1373C8.97617 12.3844 8.13607 12.475 7.12576 12.3158C6.63158 12.2362 5.77776 11.9451 5.08317 11.709C4.92942 11.6569 4.78117 11.6075 4.64665 11.5608C4.18542 11.407 3.6885 11.6569 3.53475 12.1181C3.38101 12.5793 3.63084 13.0763 4.09207 13.23C4.19091 13.2629 4.30896 13.3041 4.44074 13.3481C5.12435 13.5814 6.18682 13.9438 6.84573 14.0509H6.85122C8.07842 14.2431 9.27542 14.1662 10.2473 13.7516C11.2494 13.3233 12.0153 12.5217 12.2185 11.3549C12.3173 10.7783 12.2926 10.2457 12.1334 9.75979H10.0551C10.2473 9.91354 10.3681 10.0673 10.4367 10.232L10.434 10.2293Z" fill="#454545"/>
  </g>
  <defs>
    <clipPath id="clip0_3_45">
      <rect width="14.0565" height="14.0565" fill="white" transform="translate(0.855225 0.971741)"/>
    </clipPath>
  </defs>
</svg>