<svg xmlns="http://www.w3.org/2000/svg" width="20" height="14" viewBox="0 0 20 14" fill="none">
  <path d="M2.71478 13.0827H15.7218C16.8882 13.0827 17.8301 12.1303 17.8301 10.9586V10.311C17.1806 10.7016 16.4223 10.9243 15.6096 10.9243C15.4736 10.9243 15.3409 10.9174 15.2083 10.9037H10.1993V7.60789H11.3929C11.3079 7.26528 11.2637 6.9124 11.2637 6.54581C11.2637 6.17923 11.3079 5.82292 11.3929 5.48374H10.1993V2.19132H15.1641C15.3103 2.17419 15.46 2.16734 15.6096 2.16734C16.4223 2.16734 17.1806 2.39003 17.8301 2.7806V2.1365C17.8301 0.964798 16.8882 0.0123596 15.7218 0.0123596H2.71478C1.5518 0.0123596 0.606445 0.961372 0.606445 2.13308V10.9586C0.606445 12.1303 1.5518 13.0827 2.71478 13.0827ZM2.67737 2.19132H8.09102V5.48374H2.67737V2.19132ZM2.67737 7.60789H8.09102V10.9037H2.67737V7.60789Z" fill="#454545"/>
  <path d="M12.3419 7.60796C12.7874 8.99894 14.083 10.0062 15.6098 10.0062C16.4566 10.0062 17.2319 9.69785 17.8304 9.18052C18.5751 8.55012 19.0444 7.60454 19.0444 6.54589C19.0444 5.48725 18.5751 4.54509 17.8304 3.91469C17.2319 3.39736 16.4566 3.08902 15.6098 3.08902C14.083 3.08902 12.7874 4.09627 12.3419 5.48382C12.2365 5.81615 12.1787 6.17588 12.1787 6.54589C12.1787 6.9159 12.2365 7.27564 12.3419 7.60796ZM13.8858 6.2307H15.297V4.80889C15.297 4.63416 15.4364 4.49027 15.6098 4.49027C15.7833 4.49027 15.9261 4.63416 15.9261 4.80889V6.2307H17.3373C17.5107 6.2307 17.6502 6.37116 17.6502 6.54589C17.6502 6.72062 17.5107 6.86451 17.3373 6.86451H15.9261V8.28632C15.9261 8.46105 15.7833 8.60152 15.6098 8.60152C15.4364 8.60152 15.297 8.46105 15.297 8.28632V6.86451H13.8858C13.7124 6.86451 13.5695 6.72062 13.5695 6.54589C13.5695 6.37116 13.7124 6.2307 13.8858 6.2307Z" fill="#454545"/>
</svg>