<!-- Italic icon SVG - to be filled by user --> 
<svg xmlns="http://www.w3.org/2000/svg" width="12" height="12" viewBox="0 0 12 12" fill="none">
  <path d="M4.31684 1.02168C4.31684 0.562739 4.6949 0.191956 5.16284 0.191956H10.2388C10.7067 0.191956 11.0848 0.562739 11.0848 1.02168C11.0848 1.48062 10.7067 1.85141 10.2388 1.85141H8.68694L5.16284 10.1487H6.85483C7.32277 10.1487 7.70082 10.5195 7.70082 10.9784C7.70082 11.4373 7.32277 11.8081 6.85483 11.8081H1.77886C1.31092 11.8081 0.932861 11.4373 0.932861 10.9784C0.932861 10.5195 1.31092 10.1487 1.77886 10.1487H3.33073L6.85483 1.85141H5.16284C4.6949 1.85141 4.31684 1.48062 4.31684 1.02168Z" fill="#394150"/>
</svg>