<!-- More options icon SVG - to be filled by user --> 
<svg xmlns="http://www.w3.org/2000/svg" width="15" height="16" viewBox="0 0 15 16" fill="none">
  <g clip-path="url(#clip0_26_758)">
    <path d="M0.875488 8C0.875488 7.53587 1.05986 7.09075 1.38805 6.76256C1.71624 6.43437 2.16136 6.25 2.62549 6.25C3.08962 6.25 3.53474 6.43437 3.86293 6.76256C4.19111 7.09075 4.37549 7.53587 4.37549 8C4.37549 8.46413 4.19111 8.90925 3.86293 9.23744C3.53474 9.56563 3.08962 9.75 2.62549 9.75C2.16136 9.75 1.71624 9.56563 1.38805 9.23744C1.05986 8.90925 0.875488 8.46413 0.875488 8ZM5.87549 8C5.87549 7.53587 6.05986 7.09075 6.38805 6.76256C6.71624 6.43437 7.16136 6.25 7.62549 6.25C8.08962 6.25 8.53474 6.43437 8.86293 6.76256C9.19111 7.09075 9.37549 7.53587 9.37549 8C9.37549 8.46413 9.19111 8.90925 8.86293 9.23744C8.53474 9.56563 8.08962 9.75 7.62549 9.75C7.16136 9.75 6.71624 9.56563 6.38805 9.23744C6.05986 8.90925 5.87549 8.46413 5.87549 8ZM12.6255 6.25C13.0896 6.25 13.5347 6.43437 13.8629 6.76256C14.1911 7.09075 14.3755 7.53587 14.3755 8C14.3755 8.46413 14.1911 8.90925 13.8629 9.23744C13.5347 9.56563 13.0896 9.75 12.6255 9.75C12.1614 9.75 11.7162 9.56563 11.3881 9.23744C11.0599 8.90925 10.8755 8.46413 10.8755 8C10.8755 7.53587 11.0599 7.09075 11.3881 6.76256C11.7162 6.43437 12.1614 6.25 12.6255 6.25Z" fill="#454545"/>
  </g>
  <defs>
    <clipPath id="clip0_26_758">
      <rect width="14" height="16" fill="white" transform="translate(0.625488)"/>
    </clipPath>
  </defs>
</svg>