<!-- Color icon SVG - to be filled by user --> 
<svg xmlns="http://www.w3.org/2000/svg" width="13" height="14" viewBox="0 0 13 14" fill="none">
  <g clip-path="url(#clip0_26_733)">
    <path d="M7.55292 1.73122C7.43003 1.4071 7.11626 1.19189 6.76851 1.19189C6.42076 1.19189 6.107 1.4071 5.98411 1.73122L2.42291 11.1486H1.74832C1.28552 11.1486 0.911621 11.5194 0.911621 11.9783C0.911621 12.4373 1.28552 12.8081 1.74832 12.8081H4.25842C4.72121 12.8081 5.09511 12.4373 5.09511 11.9783C5.09511 11.5194 4.72121 11.1486 4.25842 11.1486H4.21135L4.68199 9.90402H8.85503L9.32567 11.1486H9.27861C8.81581 11.1486 8.44191 11.5194 8.44191 11.9783C8.44191 12.4373 8.81581 12.8081 9.27861 12.8081H11.7887C12.2515 12.8081 12.6254 12.4373 12.6254 11.9783C12.6254 11.5194 12.2515 11.1486 11.7887 11.1486H11.1141L7.55292 1.73122ZM8.2275 8.24457H5.30952L6.76851 4.38375L8.2275 8.24457Z" fill="#454545"/>
  </g>
  <defs>
    <clipPath id="clip0_26_733">
      <rect width="11.7138" height="13.2756" fill="white" transform="translate(0.911621 0.362183)"/>
    </clipPath>
  </defs>
</svg>