<!-- Underline icon SVG - to be filled by user --> 
<svg xmlns="http://www.w3.org/2000/svg" width="12" height="12" viewBox="0 0 12 12" fill="none">
  <path d="M0.475176 1.02168C0.475176 0.562739 0.824149 0.191956 1.25609 0.191956H3.59885C4.0308 0.191956 4.37977 0.562739 4.37977 1.02168C4.37977 1.48062 4.0308 1.85141 3.59885 1.85141H3.20839V5.17031C3.20839 6.54455 4.25775 7.65949 5.55115 7.65949C6.84454 7.65949 7.8939 6.54455 7.8939 5.17031V1.85141H7.50344C7.0715 1.85141 6.72253 1.48062 6.72253 1.02168C6.72253 0.562739 7.0715 0.191956 7.50344 0.191956H9.8462C10.2781 0.191956 10.6271 0.562739 10.6271 1.02168C10.6271 1.48062 10.2781 1.85141 9.8462 1.85141H9.45574V5.17031C9.45574 7.46243 7.70844 9.31894 5.55115 9.31894C3.39386 9.31894 1.64655 7.46243 1.64655 5.17031V1.85141H1.25609C0.824149 1.85141 0.475176 1.48062 0.475176 1.02168ZM0.0847168 10.9784C0.0847168 10.5195 0.43369 10.1487 0.865636 10.1487H10.2367C10.6686 10.1487 11.0176 10.5195 11.0176 10.9784C11.0176 11.4373 10.6686 11.8081 10.2367 11.8081H0.865636C0.43369 11.8081 0.0847168 11.4373 0.0847168 10.9784Z" fill="#394150"/>
</svg>