<svg xmlns="http://www.w3.org/2000/svg" width="14" height="15" viewBox="0 0 14 15" fill="none">
  <g clip-path="url(#clip0_12_244)">
    <path d="M14 1.875C14 2.39355 13.5531 2.8125 13 2.8125H6C5.44688 2.8125 5 2.39355 5 1.875C5 1.35645 5.44688 0.9375 6 0.9375H13C13.5531 0.9375 14 1.35645 14 1.875ZM14 9.375C14 9.89355 13.5531 10.3125 13 10.3125H6C5.44688 10.3125 5 9.89355 5 9.375C5 8.85645 5.44688 8.4375 6 8.4375H13C13.5531 8.4375 14 8.85645 14 9.375ZM0 5.625C0 5.10645 0.446875 4.6875 1 4.6875H13C13.5531 4.6875 14 5.10645 14 5.625C14 6.14355 13.5531 6.5625 13 6.5625H1C0.446875 6.5625 0 6.14355 0 5.625ZM14 13.125C14 13.6436 13.5531 14.0625 13 14.0625H1C0.446875 14.0625 0 13.6436 0 13.125C0 12.6064 0.446875 12.1875 1 12.1875H13C13.5531 12.1875 14 12.6064 14 13.125Z" fill="#394150"/>
  </g>
  <defs>
    <clipPath id="clip0_12_244">
      <rect width="14" height="15" fill="white"/>
    </clipPath>
  </defs>
</svg>