<svg xmlns="http://www.w3.org/2000/svg" width="18" height="14" viewBox="0 0 18 14" fill="none">
  <g clip-path="url(#clip0_23_620)">
    <path d="M17.2744 10.9348V2.16365C17.2744 0.994844 16.3413 0.0475311 15.1901 0.0475311H2.35536C1.20413 0.0475311 0.274414 0.991437 0.274414 2.16024V10.9382C0.274414 12.1036 1.20413 13.0509 2.35536 13.0509H15.1935C16.3447 13.0509 17.2744 12.1036 17.2744 10.9382V10.9348ZM2.31844 7.60218H7.66178V10.8803H2.31844V7.60218ZM15.0827 10.8803H9.74273V7.60218H15.0827V10.8803ZM15.0827 5.48947H9.74273V2.21477H15.0827V5.48947ZM2.31844 2.21477H7.66178V5.48947H2.31844V2.21477Z" fill="#454545"/>
  </g>
  <defs>
    <clipPath id="clip0_23_620">
      <rect width="17" height="13" fill="white" transform="translate(0.274414 0.0475311)"/>
    </clipPath>
  </defs>
</svg>