<svg xmlns="http://www.w3.org/2000/svg" width="19" height="14" viewBox="0 0 19 14" fill="none">
  <path d="M16.4982 0.0123596H3.49115C2.32476 0.0123596 1.38281 0.964798 1.38281 2.1365V2.78402C2.03231 2.39346 2.79063 2.17076 3.60336 2.17076C3.73938 2.17076 3.872 2.17762 4.00462 2.19132H9.0136V5.48717H7.82001C7.90503 5.82977 7.94924 6.18265 7.94924 6.54924C7.94924 6.91583 7.90503 7.27213 7.82001 7.61131H9.0136V10.9037H4.04883C3.9026 10.9209 3.75298 10.9277 3.60336 10.9277C2.79063 10.9277 2.03231 10.705 1.38281 10.3145V10.9586C1.38281 12.1303 2.32476 13.0827 3.49115 13.0827H16.4982C17.6612 13.0827 18.6065 12.1337 18.6065 10.962V2.1365C18.6065 0.964798 17.6612 0.0123596 16.4982 0.0123596ZM16.5356 10.9037H11.1219V7.61131H16.5356V10.9037ZM16.5356 5.48717H11.1219V2.19132H16.5356V5.48717Z" fill="#454545"/>
  <path d="M6.87164 5.48725C6.42617 4.09627 5.13057 3.08902 3.60373 3.08902C2.75699 3.08902 1.98167 3.39736 1.38318 3.91469C0.638465 4.54509 0.169189 5.49067 0.169189 6.54932C0.169189 7.60796 0.638465 8.55012 1.38318 9.18052C1.98167 9.69785 2.75699 10.0062 3.60373 10.0062C5.13057 10.0062 6.42617 8.99894 6.87164 7.61139C6.97706 7.27906 7.03486 6.91933 7.03486 6.54932C7.03486 6.17931 6.97706 5.81957 6.87164 5.48725ZM5.3278 6.86451H3.91658V8.28632C3.91658 8.46105 3.77715 8.60494 3.60373 8.60494C3.4303 8.60494 3.28748 8.46105 3.28748 8.28632V6.86451H1.87626C1.70284 6.86451 1.56341 6.72405 1.56341 6.54932C1.56341 6.37459 1.70284 6.2307 1.87626 6.2307H3.28748V4.80889C3.28748 4.63416 3.4303 4.4937 3.60373 4.4937C3.77715 4.4937 3.91658 4.63416 3.91658 4.80889V6.2307H5.3278C5.50123 6.2307 5.64405 6.37459 5.64405 6.54932C5.64405 6.72405 5.50123 6.86451 5.3278 6.86451Z" fill="#454545"/>
</svg>