<!-- Superscript icon SVG - to be filled by user --> 
<svg xmlns="http://www.w3.org/2000/svg" width="15" height="14" viewBox="0 0 15 14" fill="none">
  <g clip-path="url(#clip0_26_735)">
    <path d="M13.7505 0.874642C13.7505 0.571127 13.5946 0.289486 13.3349 0.130892C13.0751 -0.0277016 12.7552 -0.0441078 12.4845 0.092611L11.6095 0.530111C11.1774 0.746127 11.0024 1.27113 11.2185 1.70316C11.3716 2.00941 11.6806 2.18714 12.0005 2.18714V4.37464C11.5165 4.37464 11.1255 4.76566 11.1255 5.24964C11.1255 5.73363 11.5165 6.12464 12.0005 6.12464H12.8755H13.7505C14.2345 6.12464 14.6255 5.73363 14.6255 5.24964C14.6255 4.76566 14.2345 4.37464 13.7505 4.37464V0.874642ZM1.50049 1.74964C1.0165 1.74964 0.625488 2.14066 0.625488 2.62464C0.625488 3.10863 1.0165 3.49964 1.50049 3.49964H1.91885L4.36885 6.99964L1.91885 10.4996H1.50049C1.0165 10.4996 0.625488 10.8907 0.625488 11.3746C0.625488 11.8586 1.0165 12.2496 1.50049 12.2496H2.37549C2.65986 12.2496 2.92783 12.1102 3.09189 11.8778L5.43799 8.52542L7.78408 11.8778C7.94814 12.1129 8.21611 12.2496 8.50049 12.2496H9.37549C9.85947 12.2496 10.2505 11.8586 10.2505 11.3746C10.2505 10.8907 9.85947 10.4996 9.37549 10.4996H8.95713L6.50713 6.99964L8.95713 3.49964H9.37549C9.85947 3.49964 10.2505 3.10863 10.2505 2.62464C10.2505 2.14066 9.85947 1.74964 9.37549 1.74964H8.50049C8.21611 1.74964 7.94814 1.8891 7.78408 2.12152L5.43799 5.47386L3.09189 2.12152C2.92783 1.8891 2.65986 1.74964 2.37549 1.74964H1.50049Z" fill="#454545"/>
  </g>
  <defs>
    <clipPath id="clip0_26_735">
      <rect width="14" height="14" fill="white" transform="translate(0.625488)"/>
    </clipPath>
  </defs>
</svg>