<svg xmlns="http://www.w3.org/2000/svg" width="16" height="16" viewBox="0 0 16 16" fill="none">
  <g clip-path="url(#clip0_26_744)">
    <path d="M2.50049 8V5.1875H7.18799V8H2.50049ZM2.50049 9.875H7.18799V12.6875H2.50049V9.875ZM9.06299 12.6875V9.875H13.7505V12.6875H9.06299ZM13.7505 8H9.06299V5.1875H13.7505V8ZM2.50049 1.4375C1.46631 1.4375 0.625488 2.27832 0.625488 3.3125V12.6875C0.625488 13.7217 1.46631 14.5625 2.50049 14.5625H13.7505C14.7847 14.5625 15.6255 13.7217 15.6255 12.6875V3.3125C15.6255 2.27832 14.7847 1.4375 13.7505 1.4375H2.50049Z" fill="#454545"/>
  </g>
  <defs>
    <clipPath id="clip0_26_744">
      <rect width="15" height="15" fill="white" transform="translate(0.625488 0.5)"/>
    </clipPath>
  </defs>
</svg>