<svg xmlns="http://www.w3.org/2000/svg" width="17" height="16" viewBox="0 0 17 16" fill="none">
  <g clip-path="url(#clip0_6_132)">
    <path d="M16.07 7.7128C16.07 7.73944 16.07 7.76609 16.07 7.79273C16.0582 8.87332 15.0753 9.60753 13.9947 9.60753H11.0963C10.3118 9.60753 9.67527 10.244 9.67527 11.0286C9.67527 11.1292 9.68711 11.2269 9.70487 11.3217C9.76704 11.6237 9.89731 11.9138 10.0246 12.2069C10.2052 12.6154 10.3828 13.021 10.3828 13.4503C10.3828 14.3917 9.74336 15.2473 8.80191 15.2858C8.69829 15.2888 8.59468 15.2917 8.4881 15.2917C4.30487 15.2917 0.912109 11.899 0.912109 7.7128C0.912109 3.52661 4.30487 0.13385 8.49106 0.13385C12.6772 0.13385 16.07 3.52661 16.07 7.7128ZM4.70158 8.66017C4.70158 8.40891 4.60177 8.16794 4.42411 7.99028C4.24644 7.81261 4.00547 7.7128 3.75421 7.7128C3.50296 7.7128 3.26199 7.81261 3.08432 7.99028C2.90666 8.16794 2.80685 8.40891 2.80685 8.66017C2.80685 8.91142 2.90666 9.15239 3.08432 9.33006C3.26199 9.50772 3.50296 9.60753 3.75421 9.60753C4.00547 9.60753 4.24644 9.50772 4.42411 9.33006C4.60177 9.15239 4.70158 8.91142 4.70158 8.66017ZM4.70158 5.81806C4.95284 5.81806 5.19381 5.71825 5.37147 5.54058C5.54914 5.36292 5.64895 5.12195 5.64895 4.87069C5.64895 4.61943 5.54914 4.37847 5.37147 4.2008C5.19381 4.02314 4.95284 3.92332 4.70158 3.92332C4.45033 3.92332 4.20936 4.02314 4.03169 4.2008C3.85403 4.37847 3.75421 4.61943 3.75421 4.87069C3.75421 5.12195 3.85403 5.36292 4.03169 5.54058C4.20936 5.71825 4.45033 5.81806 4.70158 5.81806ZM9.43843 2.97596C9.43843 2.7247 9.33861 2.48373 9.16095 2.30606C8.98328 2.1284 8.74231 2.02859 8.49106 2.02859C8.2398 2.02859 7.99883 2.1284 7.82117 2.30606C7.6435 2.48373 7.54369 2.7247 7.54369 2.97596C7.54369 3.22721 7.6435 3.46818 7.82117 3.64585C7.99883 3.82351 8.2398 3.92332 8.49106 3.92332C8.74231 3.92332 8.98328 3.82351 9.16095 3.64585C9.33861 3.46818 9.43843 3.22721 9.43843 2.97596ZM12.2805 5.81806C12.5318 5.81806 12.7728 5.71825 12.9504 5.54058C13.1281 5.36292 13.2279 5.12195 13.2279 4.87069C13.2279 4.61943 13.1281 4.37847 12.9504 4.2008C12.7728 4.02314 12.5318 3.92332 12.2805 3.92332C12.0293 3.92332 11.7883 4.02314 11.6106 4.2008C11.433 4.37847 11.3332 4.61943 11.3332 4.87069C11.3332 5.12195 11.433 5.36292 11.6106 5.54058C11.7883 5.71825 12.0293 5.81806 12.2805 5.81806Z" fill="#454545"/>
  </g>
  <defs>
    <clipPath id="clip0_6_132">
      <rect width="15.1579" height="15.1579" fill="white" transform="translate(0.912109 0.13385)"/>
    </clipPath>
  </defs>
</svg>