<!-- Undo icon SVG - to be filled by user --> 
<svg xmlns="http://www.w3.org/2000/svg" width="15" height="14" viewBox="0 0 15 14" fill="none">
  <path d="M1.95166 6.12501H1.71924C1.35557 6.12501 1.06299 5.83243 1.06299 5.46876V1.96876C1.06299 1.70353 1.22158 1.4629 1.46768 1.36173C1.71377 1.26056 1.99541 1.31525 2.18408 1.50392L3.32158 2.64142C5.7169 0.276185 9.5751 0.284388 11.9567 2.66876C14.3493 5.06134 14.3493 8.93869 11.9567 11.3313C9.56416 13.7238 5.68682 13.7238 3.29424 11.3313C2.95244 10.9895 2.95244 10.4344 3.29424 10.0926C3.63604 9.7508 4.19111 9.7508 4.53291 10.0926C6.2419 11.8016 9.01182 11.8016 10.7208 10.0926C12.4298 8.38361 12.4298 5.61369 10.7208 3.9047C9.02002 2.20392 6.27197 2.19572 4.56025 3.87736L5.68408 5.00392C5.87275 5.19259 5.92744 5.47423 5.82627 5.72033C5.7251 5.96642 5.48447 6.12501 5.21924 6.12501H1.95166Z" fill="#454545"/>
</svg>