<svg xmlns="http://www.w3.org/2000/svg" width="18" height="16" viewBox="0 0 18 16" fill="none">
  <path d="M15.6134 2.02472H13.216C13.3691 2.47353 13.4541 2.9566 13.4541 3.4568C13.4541 3.71033 13.4337 3.96043 13.3895 4.20368H15.6508V7.49953H10.7847C10.2678 7.71537 9.70328 7.83528 9.10819 7.83528C8.5131 7.83528 7.94861 7.71537 7.43173 7.49953H2.71859V4.20368H4.82692C4.78271 3.96043 4.76231 3.71033 4.76231 3.4568C4.76231 2.9566 4.84732 2.47353 5.00035 2.02472H2.60637C1.43999 2.02472 0.498047 2.97716 0.498047 4.15229V12.9709C0.498047 14.146 1.43999 15.0951 2.60637 15.0951H15.6134C16.7764 15.0951 17.7217 14.146 17.7217 12.9743V4.14886C17.7217 2.97716 16.7764 2.02472 15.6134 2.02472ZM8.12884 12.9161H2.71859V9.62367H8.12884V12.9161ZM15.6508 12.9161H10.2372V9.62367H15.6508V12.9161Z" fill="#454545"/>
  <path d="M12.2335 2.02479C11.6962 0.832527 10.4992 0 9.1118 0C7.72438 0 6.52739 0.832527 5.99011 2.02479C5.78948 2.4599 5.68066 2.94639 5.68066 3.45687C5.68066 3.71383 5.70787 3.96393 5.76228 4.20375C6.02752 5.4337 6.94566 6.41697 8.13245 6.77328C8.44189 6.86578 8.77174 6.91717 9.1118 6.91717C9.50626 6.91717 9.88712 6.84865 10.2408 6.72531C11.3527 6.33474 12.2063 5.38231 12.4613 4.20375C12.5157 3.96393 12.5429 3.71383 12.5429 3.45687C12.5429 2.94639 12.4341 2.4599 12.2335 2.02479ZM10.8393 3.77549H9.42465V5.1973C9.42465 5.37203 9.28522 5.5125 9.1118 5.5125C8.93837 5.5125 8.79895 5.37203 8.79895 5.1973V3.77549H7.38433C7.2109 3.77549 7.07148 3.6316 7.07148 3.45687C7.07148 3.28214 7.2109 3.14168 7.38433 3.14168H8.79895V1.71987C8.79895 1.54514 8.93837 1.40125 9.1118 1.40125C9.28522 1.40125 9.42465 1.54514 9.42465 1.71987V3.14168H10.8393C11.0127 3.14168 11.1521 3.28214 11.1521 3.45687C11.1521 3.6316 11.0127 3.77549 10.8393 3.77549Z" fill="#454545"/>
</svg>