<svg xmlns="http://www.w3.org/2000/svg" width="14" height="15" viewBox="0 0 14 15" fill="none">
  <g clip-path="url(#clip0_12_240)">
    <path d="M14 1.875C14 1.35645 13.5531 0.9375 13 0.9375H1C0.446875 0.9375 0 1.35645 0 1.875C0 2.39355 0.446875 2.8125 1 2.8125H13C13.5531 2.8125 14 2.39355 14 1.875ZM14 9.375C14 8.85645 13.5531 8.4375 13 8.4375H1C0.446875 8.4375 0 8.85645 0 9.375C0 9.89355 0.446875 10.3125 1 10.3125H13C13.5531 10.3125 14 9.89355 14 9.375ZM0 5.625C0 6.14355 0.446875 6.5625 1 6.5625H13C13.5531 6.5625 14 6.14355 14 5.625C14 5.10645 13.5531 4.6875 13 4.6875H1C0.446875 4.6875 0 5.10645 0 5.625ZM14 13.125C14 12.6064 13.5531 12.1875 13 12.1875H1C0.446875 12.1875 0 12.6064 0 13.125C0 13.6436 0.446875 14.0625 1 14.0625H13C13.5531 14.0625 14 13.6436 14 13.125Z" fill="#394150"/>
  </g>
  <defs>
    <clipPath id="clip0_12_240">
      <rect width="14" height="15" fill="white"/>
    </clipPath>
  </defs>
</svg>