<svg xmlns="http://www.w3.org/2000/svg" width="19" height="14" viewBox="0 0 19 14" fill="none">
  <path d="M16.5185 0.0123596H3.51142C2.34844 0.0123596 1.40649 0.964798 1.40649 2.1365V2.69495C2.18522 2.27012 3.06596 2.10224 3.92289 2.19132H8.89106V5.48374H7.69069C7.86412 6.17923 7.86412 6.9124 7.69069 7.60789H8.89106V10.9037H3.89228C3.04215 10.986 2.17501 10.8181 1.40649 10.3967V10.962C1.40649 12.1337 2.34844 13.0827 3.51142 13.0827H16.5185C17.6848 13.0827 18.6302 12.1303 18.6302 10.9586V2.13993C18.6302 0.964798 17.6848 0.0123596 16.5185 0.0123596ZM16.4096 10.9037H10.9994V7.60789H16.4096V10.9037ZM16.4096 5.48374H10.9994V2.19132H16.4096V5.48374Z" fill="#454545"/>
  <path d="M6.74518 5.48377C6.58195 4.97671 6.30312 4.50049 5.90185 4.09965C5.23195 3.42472 4.35801 3.08554 3.47727 3.08554C2.74616 3.08554 2.01504 3.31851 1.40634 3.78788C1.28052 3.88038 1.16151 3.98659 1.04929 4.09965C-0.290519 5.44951 -0.290519 7.64217 1.04929 8.99203C1.16151 9.10509 1.28052 9.2113 1.40634 9.3038C2.01504 9.77317 2.74616 10.0061 3.47727 10.0061C4.35801 10.0061 5.23195 9.66696 5.90185 8.99203C6.30312 8.59119 6.58195 8.11496 6.74518 7.60791C6.96281 6.91928 6.96281 6.1724 6.74518 5.48377ZM4.9191 7.55309C4.9191 7.55309 4.9497 7.58736 4.9633 7.60791C5.03812 7.72782 5.02451 7.89227 4.9191 7.99848C4.79668 8.12182 4.59605 8.12182 4.47363 7.99848L4.08596 7.60791L3.47727 6.99465L2.47752 7.99848C2.3551 8.12182 2.15787 8.12182 2.03205 7.99848C1.90963 7.87514 1.90963 7.67643 2.03205 7.55309L3.0318 6.54584L2.03205 5.53858C1.90963 5.41525 1.90963 5.21654 2.03205 5.0932C2.15787 4.96986 2.3551 4.96986 2.47752 5.0932L3.47727 6.09703L4.47363 5.0932C4.59605 4.96986 4.79668 4.96986 4.9191 5.0932C5.02451 5.19941 5.03812 5.36386 4.9633 5.48377C4.9497 5.50432 4.9361 5.52145 4.9191 5.53858L3.91934 6.54584L4.9191 7.55309Z" fill="#454545"/>
</svg>