<!-- Background color icon SVG - to be filled by user --> 
<svg xmlns="http://www.w3.org/2000/svg" width="15" height="14" viewBox="0 0 15 14" fill="none">
  <g clip-path="url(#clip0_3_40)">
    <path d="M1.08399 0.605877C1.40598 0.281765 1.92632 0.281765 2.24831 0.605877L4.34514 2.7139L5.71296 1.33707C6.4368 0.60847 7.61144 0.60847 8.33528 1.33707L12.2353 5.26531C12.9591 5.99391 12.9591 7.17627 12.2353 7.90487L7.33066 12.8443C6.36468 13.8167 4.7985 13.8167 3.83252 12.8443L0.805784 9.79769C-0.160196 8.82535 -0.160196 7.24887 0.805784 6.27654L3.17823 3.88848L1.08399 1.77786C0.761993 1.45375 0.761993 0.927396 1.08399 0.603284V0.605877ZM5.61765 6.34395L4.34514 5.06306L1.97269 7.45112C1.8645 7.56002 1.79237 7.69226 1.75631 7.82968H9.97873L11.0684 6.73289C11.1482 6.65251 11.1482 6.52027 11.0684 6.43989L7.17095 2.51165C7.09109 2.43127 6.95972 2.43127 6.87987 2.51165L5.51204 3.88848L6.78456 5.16937C7.10655 5.49348 7.10655 6.01984 6.78456 6.34395C6.46256 6.66806 5.93965 6.66806 5.61765 6.34395ZM13.2064 13.6378C12.2971 13.6378 11.5578 12.8936 11.5578 11.9783C11.5578 11.3249 12.3975 9.91437 12.8767 9.15983C13.0312 8.9161 13.379 8.9161 13.5335 9.15983C14.0152 9.91437 14.855 11.3249 14.855 11.9783C14.855 12.8936 14.1157 13.6378 13.2064 13.6378Z" fill="#394150"/>
  </g>
  <defs>
    <clipPath id="clip0_3_40">
      <rect width="14.8375" height="13.2756" fill="white" transform="translate(0.0175781 0.362183)"/>
    </clipPath>
  </defs>
</svg>