<svg xmlns="http://www.w3.org/2000/svg" width="18" height="16" viewBox="0 0 18 16" fill="none">
  <path d="M2.83001 13.0703H5.22738C5.07436 12.6215 4.98935 12.1385 4.98935 11.6383C4.98935 11.3847 5.00975 11.1346 5.05396 10.8914H2.79261V7.59554H7.65876C8.17564 7.3797 8.74013 7.25979 9.33522 7.25979C9.93032 7.25979 10.4948 7.3797 11.0117 7.59554H15.7248V10.8914H13.6165C13.6607 11.1346 13.6811 11.3847 13.6811 11.6383C13.6811 12.1385 13.5961 12.6215 13.4431 13.0703H15.837C17.0034 13.0703 17.9454 12.1179 17.9454 10.9428V2.12416C17.9454 0.949028 17.0034 1.52588e-05 15.837 1.52588e-05H2.83001C1.66703 1.52588e-05 0.72168 0.949028 0.72168 2.12073V10.9462C0.72168 12.1179 1.66703 13.0703 2.83001 13.0703ZM10.3146 2.17898H15.7248V5.4714H10.3146V2.17898ZM2.79261 2.17898H8.20625V5.4714H2.79261V2.17898Z" fill="#454545"/>
  <path d="M6.2135 13.0703C6.75079 14.2625 7.94777 15.095 9.33519 15.095C10.7226 15.095 11.9196 14.2625 12.4569 13.0703C12.6575 12.6351 12.7663 12.1486 12.7663 11.6382C12.7663 11.3812 12.7391 11.1311 12.6847 10.8913C12.4195 9.66135 11.5013 8.67807 10.3145 8.32177C10.0051 8.22926 9.67524 8.17787 9.33519 8.17787C8.94072 8.17787 8.55987 8.24639 8.20621 8.36973C7.09424 8.7603 6.24071 9.71274 5.98567 10.8913C5.93126 11.1311 5.90405 11.3812 5.90405 11.6382C5.90405 12.1486 6.01287 12.6351 6.2135 13.0703ZM7.60772 11.3195H9.02234V9.89774C9.02234 9.72302 9.16176 9.58255 9.33519 9.58255C9.50861 9.58255 9.64803 9.72302 9.64803 9.89774V11.3195H11.0627C11.2361 11.3195 11.3755 11.4634 11.3755 11.6382C11.3755 11.8129 11.2361 11.9534 11.0627 11.9534H9.64803V13.3752C9.64803 13.5499 9.50861 13.6938 9.33519 13.6938C9.16176 13.6938 9.02234 13.5499 9.02234 13.3752V11.9534H7.60772C7.43429 11.9534 7.29487 11.8129 7.29487 11.6382C7.29487 11.4634 7.43429 11.3195 7.60772 11.3195Z" fill="#454545"/>
</svg>