<!-- Subscript icon SVG - to be filled by user --> 
<svg xmlns="http://www.w3.org/2000/svg" width="15" height="14" viewBox="0 0 15 14" fill="none">
  <g clip-path="url(#clip0_26_737)">
    <path d="M1.50049 1.75C1.0165 1.75 0.625488 2.14102 0.625488 2.625C0.625488 3.10898 1.0165 3.5 1.50049 3.5H1.91885L4.36885 7L1.91885 10.5H1.50049C1.0165 10.5 0.625488 10.891 0.625488 11.375C0.625488 11.859 1.0165 12.25 1.50049 12.25H2.37549C2.65986 12.25 2.92783 12.1105 3.09189 11.8781L5.43799 8.52578L7.78408 11.8781C7.94814 12.1133 8.21611 12.25 8.50049 12.25H9.37549C9.85947 12.25 10.2505 11.859 10.2505 11.375C10.2505 10.891 9.85947 10.5 9.37549 10.5H8.95713L6.50713 7L8.95713 3.5H9.37549C9.85947 3.5 10.2505 3.10898 10.2505 2.625C10.2505 2.14102 9.85947 1.75 9.37549 1.75H8.50049C8.21611 1.75 7.94814 1.88945 7.78408 2.12187L5.43799 5.47422L3.09189 2.12187C2.92783 1.88945 2.65986 1.75 2.37549 1.75H1.50049ZM13.7505 8.75C13.7505 8.44648 13.5946 8.16484 13.3349 8.00625C13.0751 7.84766 12.7552 7.83125 12.4845 7.96797L11.6095 8.40547C11.1774 8.62148 11.0024 9.14648 11.2185 9.57852C11.3716 9.88477 11.6806 10.0625 12.0005 10.0625V12.25C11.5165 12.25 11.1255 12.641 11.1255 13.125C11.1255 13.609 11.5165 14 12.0005 14H12.8755H13.7505C14.2345 14 14.6255 13.609 14.6255 13.125C14.6255 12.641 14.2345 12.25 13.7505 12.25V8.75Z" fill="#454545"/>
  </g>
  <defs>
    <clipPath id="clip0_26_737">
      <rect width="14" height="14" fill="white" transform="translate(0.625488)"/>
    </clipPath>
  </defs>
</svg>