<svg xmlns="http://www.w3.org/2000/svg" width="18" height="14" viewBox="0 0 18 14" fill="none">
  <path d="M15.3864 0.0123596H2.37934C1.21636 0.0123596 0.274414 0.964798 0.274414 2.1365V10.962C0.274414 12.1337 1.21636 13.0827 2.37934 13.0827H15.3864C16.5528 13.0827 17.4981 12.1337 17.4981 10.9586V2.13993C17.4981 0.964798 16.5528 0.0123596 15.3864 0.0123596ZM15.2776 5.48374H13.2542C13.4209 6.18265 13.4209 6.9124 13.2542 7.60789H15.2776V10.9037H10.1257C9.31642 11.1367 8.45609 11.1367 7.64676 10.9037H2.34534V7.60789H4.51488C4.34825 6.9124 4.34825 6.18265 4.51488 5.48374H2.34534V2.19132H7.66037C8.46289 1.96178 9.31302 1.96178 10.1155 2.19132H15.2776V5.48374Z" fill="#454545"/>
  <path d="M12.2715 5.48376C12.1083 4.9493 11.8158 4.44567 11.3942 4.02084C10.9521 3.57546 10.4284 3.27396 9.86732 3.11294C9.18041 2.9108 8.4425 2.92793 7.75899 3.15748C7.25231 3.32535 6.77624 3.61657 6.37497 4.02084C5.95331 4.44567 5.66086 4.9493 5.49764 5.48376C5.28 6.17239 5.28 6.91927 5.49424 7.6079C5.65746 8.14579 5.95331 8.65284 6.37497 9.07767C6.79664 9.5025 7.25231 9.77316 7.75899 9.94103C8.4425 10.1706 9.18041 10.1877 9.86732 9.98557C10.4284 9.82455 10.9521 9.52306 11.3942 9.07767C11.8362 8.63229 12.1117 8.14579 12.2749 7.6079C12.4891 6.91927 12.4891 6.17239 12.2715 5.48376ZM10.3774 7.59077C10.3774 7.59077 10.3876 7.60105 10.391 7.6079C10.5032 7.73467 10.4964 7.92995 10.3774 8.05329C10.2516 8.18005 10.0441 8.18005 9.91833 8.05329L9.86732 8.0019L8.88457 7.01177L7.8508 8.05329C7.8236 8.0807 7.793 8.10468 7.75899 8.11838C7.63997 8.1732 7.49375 8.15264 7.39173 8.05329C7.27271 7.92995 7.26591 7.73467 7.37813 7.6079C7.38153 7.60105 7.38493 7.59762 7.39173 7.59077L8.42549 6.54926L7.39173 5.50774C7.39173 5.50774 7.37813 5.49404 7.37133 5.48376C7.26591 5.357 7.27271 5.16514 7.39173 5.04523C7.49375 4.94587 7.63997 4.92531 7.75899 4.98013C7.793 4.99384 7.8236 5.01782 7.8508 5.04523L8.88457 6.08674L9.86732 5.09662L9.91833 5.04523C10.0441 4.91846 10.2516 4.91846 10.3774 5.04523C10.4964 5.16514 10.5032 5.357 10.3978 5.48376C10.391 5.49404 10.3842 5.50089 10.3774 5.50774L9.34364 6.54926L10.3774 7.59077Z" fill="#454545"/>
</svg>