<svg xmlns="http://www.w3.org/2000/svg" width="13" height="16" viewBox="0 0 13 16" fill="none">
  <path d="M8.35714 2C8.35714 2.55313 7.94219 3 7.42857 3H0.928571C0.414955 3 0 2.55313 0 2C0 1.44687 0.414955 1 0.928571 1H7.42857C7.94219 1 8.35714 1.44687 8.35714 2ZM8.35714 10C8.35714 10.5531 7.94219 11 7.42857 11H0.928571C0.414955 11 0 10.5531 0 10C0 9.44687 0.414955 9 0.928571 9H7.42857C7.94219 9 8.35714 9.44687 8.35714 10ZM0 6C0 5.44688 0.414955 5 0.928571 5H12.0714C12.585 5 13 5.44688 13 6C13 6.55312 12.585 7 12.0714 7H0.928571C0.414955 7 0 6.55312 0 6ZM13 14C13 14.5531 12.585 15 12.0714 15H0.928571C0.414955 15 0 14.5531 0 14C0 13.4469 0.414955 13 0.928571 13H12.0714C12.585 13 13 13.4469 13 14Z" fill="#394150"/>
</svg>