<!-- Redo icon SVG - to be filled by user --> 
<svg xmlns="http://www.w3.org/2000/svg" width="15" height="14" viewBox="0 0 15 14" fill="none">
  <g clip-path="url(#clip0_26_755)">
    <path d="M11.1883 4.37501H9.81294C9.32896 4.37501 8.93794 4.76603 8.93794 5.25001C8.93794 5.734 9.32896 6.12501 9.81294 6.12501H13.3129C13.7969 6.12501 14.1879 5.734 14.1879 5.25001V1.75001C14.1879 1.26603 13.7969 0.875012 13.3129 0.875012C12.829 0.875012 12.4379 1.26603 12.4379 1.75001V3.15001L11.9567 2.66876C9.56411 0.276184 5.68677 0.276184 3.29419 2.66876C0.901611 5.06134 0.901611 8.93868 3.29419 11.3313C5.68677 13.7238 9.56411 13.7238 11.9567 11.3313C12.2985 10.9895 12.2985 10.4344 11.9567 10.0926C11.6149 9.75079 11.0598 9.75079 10.718 10.0926C9.00903 11.8016 6.23911 11.8016 4.53013 10.0926C2.82114 8.38361 2.82114 5.61368 4.53013 3.9047C6.23911 2.19572 9.00903 2.19572 10.718 3.9047L11.1883 4.37501Z" fill="#454545"/>
  </g>
  <defs>
    <clipPath id="clip0_26_755">
      <rect width="14" height="14" fill="white" transform="translate(0.625488)"/>
    </clipPath>
  </defs>
</svg>