<svg xmlns="http://www.w3.org/2000/svg" width="19" height="14" viewBox="0 0 19 14" fill="none">
  <path d="M18.169 2.13993V10.9586C18.169 12.1337 17.2271 13.0827 16.0607 13.0827H3.05365C1.89066 13.0827 0.945312 12.1337 0.945312 10.962V2.1365C0.945312 0.964798 1.89066 0.0123596 3.05365 0.0123596H7.45053C7.10367 0.204218 6.77723 0.450893 6.48478 0.745532C6.06311 1.17036 5.74346 1.66371 5.53263 2.19132H3.01624V5.48374H5.53263C5.74346 6.01135 6.05971 6.50813 6.48478 6.93638C6.74662 7.20019 7.03226 7.42288 7.33831 7.60789H3.01624V10.9037H8.42988V8.0704C9.12019 8.25541 9.8445 8.26911 10.5382 8.10466V10.9037H15.9485V7.60789H11.7794C12.0855 7.42288 12.3711 7.20019 12.6329 6.93638C13.058 6.50813 13.3743 6.01135 13.5851 5.48374H15.9485V2.19132H13.5851C13.3743 1.66371 13.0546 1.17036 12.6329 0.745532C12.3405 0.450893 12.014 0.204218 11.6672 0.0123596H16.0607C17.2271 0.0123596 18.169 0.964798 18.169 2.13993Z" fill="#454545"/>
  <path d="M12.5751 2.19137C12.4221 1.90701 12.2249 1.63635 11.9869 1.39653C10.6436 0.04324 8.4707 0.04324 7.1309 1.39653C6.89286 1.63635 6.69563 1.90701 6.5426 2.19137C5.98832 3.21575 5.98832 4.4594 6.53921 5.48379C6.69223 5.77158 6.88946 6.04223 7.1309 6.28548C8.4707 7.63534 10.6436 7.63534 11.9869 6.28548C12.2283 6.04223 12.4255 5.77158 12.5785 5.48379C13.1294 4.4594 13.1294 3.21575 12.5751 2.19137ZM10.5382 4.3806L11.0007 4.84655C11.1231 4.96988 11.1231 5.16859 11.0007 5.29536C10.8783 5.41869 10.681 5.41869 10.5586 5.29536L9.55887 4.2881L8.55912 5.29536C8.52171 5.33304 8.47751 5.36045 8.4299 5.37073C8.32108 5.40842 8.20207 5.38101 8.11705 5.29536C7.99463 5.16859 7.99463 4.96988 8.11705 4.84655L8.4299 4.53135L9.1134 3.83929L8.11705 2.83546C7.99463 2.71212 7.99463 2.50999 8.11705 2.38665C8.20207 2.301 8.32108 2.27359 8.4299 2.31128C8.47751 2.32156 8.52171 2.34896 8.55912 2.38665L9.55887 3.39391L10.5586 2.38665C10.681 2.26331 10.8783 2.26331 11.0007 2.38665C11.1231 2.50999 11.1231 2.71212 11.0007 2.83546L10.5382 3.3014L10.0009 3.83929L10.5382 4.3806Z" fill="#454545"/>
</svg>