<svg xmlns="http://www.w3.org/2000/svg" width="11" height="14" viewBox="0 0 11 14" fill="none">
<path d="M0 1.72875C0 1.24281 0.407135 0.85022 0.911072 0.85022H2.27768H2.73322H6.3775C8.3904 0.85022 10.0218 2.42334 10.0218 4.36435C10.0218 5.22367 9.70007 6.01435 9.16766 6.62383C10.2239 7.23881 10.9329 8.35619 10.9329 9.63556C10.9329 11.5766 9.30147 13.1497 7.28857 13.1497H2.73322H2.27768H0.911072C0.407135 13.1497 0 12.7571 0 12.2712C0 11.7852 0.407135 11.3926 0.911072 11.3926H1.36661V6.99995V2.60729H0.911072C0.407135 2.60729 0 2.21469 0 1.72875ZM6.3775 6.12142C7.38253 6.12142 8.19965 5.33349 8.19965 4.36435C8.19965 3.39522 7.38253 2.60729 6.3775 2.60729H3.18875V6.12142H6.3775ZM3.18875 7.87849V11.3926H7.28857C8.2936 11.3926 9.11072 10.6047 9.11072 9.63556C9.11072 8.66642 8.2936 7.87849 7.28857 7.87849H6.3775H3.18875Z" fill="#394150"/>
</svg>