<svg xmlns="http://www.w3.org/2000/svg" width="16" height="12" viewBox="0 0 16 12" fill="none">
  <path d="M14.5737 6.29853C15.9761 4.85693 15.9761 2.5223 14.5737 1.0807C13.3327 -0.195058 11.3769 -0.360906 9.94976 0.687763L9.91005 0.71583C9.55264 0.978635 9.47074 1.48894 9.72638 1.8538C9.98203 2.21867 10.4784 2.30542 10.8334 2.04261L10.8731 2.01455C11.6698 1.43025 12.7594 1.52211 13.4494 2.23398C14.2312 3.0377 14.2312 4.33897 13.4494 5.14269L10.6646 8.01059C9.88275 8.81431 8.61693 8.81431 7.83509 8.01059C7.14261 7.29872 7.05326 6.17861 7.62164 5.36212L7.64894 5.3213C7.90459 4.95388 7.8202 4.44358 7.46527 4.18333C7.11035 3.92307 6.61147 4.00727 6.3583 4.37214L6.331 4.41296C5.30841 5.87753 5.46974 7.88811 6.71075 9.16387C8.11308 10.6055 10.3841 10.6055 11.7864 9.16387L14.5737 6.29853ZM1.67724 5.70147C0.274905 7.14307 0.274905 9.4777 1.67724 10.9193C2.91824 12.1951 4.87406 12.3609 6.30121 11.3122L6.34093 11.2842C6.69834 11.0214 6.78024 10.5111 6.5246 10.1462C6.26895 9.78133 5.77255 9.69458 5.41762 9.95739L5.37791 9.98545C4.58118 10.5697 3.49158 10.4779 2.80159 9.76602C2.01976 8.95975 2.01976 7.65848 2.80159 6.85475L5.5864 3.98941C6.36823 3.18569 7.63405 3.18569 8.41588 3.98941C9.10836 4.70128 9.19771 5.82139 8.62934 6.64043L8.60203 6.68125C8.34639 7.04867 8.43078 7.55897 8.7857 7.81922C9.14063 8.07948 9.63951 7.99528 9.89268 7.63041L9.91998 7.58959C10.9426 6.12247 10.7812 4.11189 9.54023 2.83613C8.1379 1.39453 5.86686 1.39453 4.46453 2.83613L1.67724 5.70147Z" fill="#454545"/>
</svg>