<svg xmlns="http://www.w3.org/2000/svg" width="14" height="15" viewBox="0 0 14 15" fill="none">
  <g clip-path="url(#clip0_12_238)">
    <path d="M11 1.875C11 1.35645 10.5531 0.9375 10 0.9375H4C3.44688 0.9375 3 1.35645 3 1.875C3 2.39355 3.44688 2.8125 4 2.8125H10C10.5531 2.8125 11 2.39355 11 1.875ZM14 5.625C14 5.10645 13.5531 4.6875 13 4.6875H1C0.446875 4.6875 0 5.10645 0 5.625C0 6.14355 0.446875 6.5625 1 6.5625H13C13.5531 6.5625 14 6.14355 14 5.625ZM0 13.125C0 13.6436 0.446875 14.0625 1 14.0625H13C13.5531 14.0625 14 13.6436 14 13.125C14 12.6064 13.5531 12.1875 13 12.1875H1C0.446875 12.1875 0 12.6064 0 13.125ZM11 9.375C11 8.85645 10.5531 8.4375 10 8.4375H4C3.44688 8.4375 3 8.85645 3 9.375C3 9.89355 3.44688 10.3125 4 10.3125H10C10.5531 10.3125 11 9.89355 11 9.375Z" fill="#394150"/>
  </g>
  <defs>
    <clipPath id="clip0_12_238">
      <rect width="14" height="15" fill="white"/>
    </clipPath>
  </defs>
</svg>